<svg width="32" height="30" viewBox="0 0 32 30" fill="none" xmlns="http://www.w3.org/2000/svg">
<path d="M0 10C0 4.47715 4.47715 0 10 0H32V30H0V10Z" fill="#F3BA00"/>
<path d="M3.94336 19H9.41602V18.0508H5.4082V17.957L7.33008 15.9707C8.85938 14.3945 9.27539 13.6914 9.27539 12.7246V12.7129C9.27539 11.3477 8.14453 10.3457 6.66797 10.3457C5.05078 10.3457 3.89062 11.4238 3.88477 12.9238L3.89648 12.9297L4.9043 12.9355L4.91016 12.9238C4.91016 11.9277 5.58398 11.2656 6.59766 11.2656C7.59375 11.2656 8.19727 11.9336 8.19727 12.8242V12.8359C8.19727 13.5742 7.88086 14.0137 6.80273 15.1797L3.94336 18.2734V19ZM13.8716 19.1992C15.7408 19.1992 16.8658 17.4941 16.8658 14.7754V14.7637C16.8658 12.0449 15.7408 10.3457 13.8716 10.3457C12.0025 10.3457 10.8892 12.0449 10.8892 14.7637V14.7754C10.8892 17.4941 12.0025 19.1992 13.8716 19.1992ZM13.8716 18.2793C12.6587 18.2793 11.9497 16.9316 11.9497 14.7754V14.7637C11.9497 12.6074 12.6587 11.2715 13.8716 11.2715C15.0845 11.2715 15.8052 12.6074 15.8052 14.7637V14.7754C15.8052 16.9316 15.0845 18.2793 13.8716 18.2793ZM20.0323 14.9922C21.1104 14.9922 21.7667 14.1133 21.7667 12.7129V12.707C21.7667 11.3066 21.1104 10.4336 20.0323 10.4336C18.9542 10.4336 18.3038 11.3066 18.3038 12.707V12.7129C18.3038 14.1133 18.9542 14.9922 20.0323 14.9922ZM20.6651 19L26.419 10.5449H25.4698L19.7159 19H20.6651ZM20.0323 14.2949C19.4522 14.2949 19.1182 13.7031 19.1182 12.7129V12.707C19.1182 11.7168 19.4522 11.1309 20.0323 11.1309C20.6124 11.1309 20.9522 11.7168 20.9522 12.707V12.7129C20.9522 13.7031 20.6124 14.2949 20.0323 14.2949ZM26.0909 19.1113C27.169 19.1113 27.8253 18.2324 27.8253 16.832V16.8262C27.8253 15.4258 27.169 14.5527 26.0909 14.5527C25.0128 14.5527 24.3624 15.4258 24.3624 16.8262V16.832C24.3624 18.2324 25.0128 19.1113 26.0909 19.1113ZM26.0909 18.4141C25.5108 18.4141 25.1768 17.8223 25.1768 16.832V16.8262C25.1768 15.8359 25.5108 15.25 26.0909 15.25C26.671 15.25 27.0108 15.8359 27.0108 16.8262V16.832C27.0108 17.8223 26.671 18.4141 26.0909 18.4141Z" fill="#101115"/>
</svg>
