<svg width="32" height="30" viewBox="0 0 32 30" fill="none" xmlns="http://www.w3.org/2000/svg">
<path d="M0 10C0 4.47715 4.47715 0 10 0H32V30H0V10Z" fill="#F3BA00"/>
<path d="M6.7207 19.1992C8.4375 19.1992 9.66211 18.0098 9.66211 16.3047V16.293C9.66211 14.6582 8.51953 13.4688 6.93164 13.4688C6.16406 13.4688 5.50195 13.7793 5.12695 14.3477H5.0332L5.32031 11.4883H9.19336V10.5449H4.48828L4.04297 15.4023H4.95703C5.0625 15.2031 5.19727 15.0391 5.34375 14.8984C5.70703 14.5527 6.1875 14.3828 6.75 14.3828C7.8457 14.3828 8.63086 15.1855 8.63086 16.3105V16.3223C8.63086 17.4648 7.85742 18.2676 6.73242 18.2676C5.74219 18.2676 5.00977 17.623 4.91016 16.8145L4.9043 16.7676H3.89062L3.89648 16.832C4.01953 18.1855 5.14453 19.1992 6.7207 19.1992ZM14.0474 19.1992C15.9165 19.1992 17.0415 17.4941 17.0415 14.7754V14.7637C17.0415 12.0449 15.9165 10.3457 14.0474 10.3457C12.1783 10.3457 11.065 12.0449 11.065 14.7637V14.7754C11.065 17.4941 12.1783 19.1992 14.0474 19.1992ZM14.0474 18.2793C12.8345 18.2793 12.1255 16.9316 12.1255 14.7754V14.7637C12.1255 12.6074 12.8345 11.2715 14.0474 11.2715C15.2603 11.2715 15.981 12.6074 15.981 14.7637V14.7754C15.981 16.9316 15.2603 18.2793 14.0474 18.2793ZM20.2081 14.9922C21.2862 14.9922 21.9425 14.1133 21.9425 12.7129V12.707C21.9425 11.3066 21.2862 10.4336 20.2081 10.4336C19.13 10.4336 18.4796 11.3066 18.4796 12.707V12.7129C18.4796 14.1133 19.13 14.9922 20.2081 14.9922ZM20.8409 19L26.5948 10.5449H25.6456L19.8917 19H20.8409ZM20.2081 14.2949C19.628 14.2949 19.294 13.7031 19.294 12.7129V12.707C19.294 11.7168 19.628 11.1309 20.2081 11.1309C20.7882 11.1309 21.128 11.7168 21.128 12.707V12.7129C21.128 13.7031 20.7882 14.2949 20.2081 14.2949ZM26.2667 19.1113C27.3448 19.1113 28.0011 18.2324 28.0011 16.832V16.8262C28.0011 15.4258 27.3448 14.5527 26.2667 14.5527C25.1886 14.5527 24.5382 15.4258 24.5382 16.8262V16.832C24.5382 18.2324 25.1886 19.1113 26.2667 19.1113ZM26.2667 18.4141C25.6866 18.4141 25.3526 17.8223 25.3526 16.832V16.8262C25.3526 15.8359 25.6866 15.25 26.2667 15.25C26.8468 15.25 27.1866 15.8359 27.1866 16.8262V16.832C27.1866 17.8223 26.8468 18.4141 26.2667 18.4141Z" fill="#101115"/>
</svg>
